<?xml version="1.0" encoding="UTF-8" standalone="no"?>
<svg xmlns="http://www.w3.org/2000/svg" height="896" id="uuid-e40a849c-785a-4043-a7bf-f08dac250a25" viewBox="0 0 250 100" width="2240">
  <defs>
    <style>.uuid-5d02ad95-6dcf-40a8-9901-c67c815f8bb9{stroke-dasharray:0 0 .1 4.18;}.uuid-5d02ad95-6dcf-40a8-9901-c67c815f8bb9,.uuid-a0a6b5ab-e134-48be-b078-9d6ad9c9b459,.uuid-f4dca02c-b76d-469a-8a4b-c3d88efe2e78,.uuid-d01507e9-09b6-49fe-a556-fe3015977130,.uuid-c558eb4f-3414-4e9f-8e69-f12a000d8c29,.uuid-b1d67155-4e50-4c80-8642-8008cca454e4{fill:none;stroke:#ff6e00;stroke-linecap:round;stroke-linejoin:round;}.uuid-5d02ad95-6dcf-40a8-9901-c67c815f8bb9,.uuid-f4dca02c-b76d-469a-8a4b-c3d88efe2e78,.uuid-d01507e9-09b6-49fe-a556-fe3015977130,.uuid-c558eb4f-3414-4e9f-8e69-f12a000d8c29,.uuid-b1d67155-4e50-4c80-8642-8008cca454e4{stroke-width:4px;}.uuid-a0a6b5ab-e134-48be-b078-9d6ad9c9b459{stroke-width:2px;}.uuid-f4dca02c-b76d-469a-8a4b-c3d88efe2e78{stroke-dasharray:0 0 .1 3.9;}.uuid-d01507e9-09b6-49fe-a556-fe3015977130{stroke-dasharray:0 0 .1 3.9;}.uuid-b1d67155-4e50-4c80-8642-8008cca454e4{stroke-dasharray:0 0 .11 4.23;}.uuid-3b17b192-4856-4713-ac7c-e7827e72f5ee{fill:#ff6e00;}</style>
  </defs>
  <path class="uuid-3b17b192-4856-4713-ac7c-e7827e72f5ee" d="M50,5.39c6.02,0,11.87,1.18,17.36,3.5,5.31,2.25,10.08,5.46,14.18,9.56,4.1,4.1,7.32,8.87,9.56,14.18,2.33,5.5,3.5,11.34,3.5,17.36s-1.18,11.87-3.5,17.36c-2.25,5.31-5.46,10.08-9.56,14.18-4.1,4.1-8.87,7.32-14.18,9.56-5.5,2.33-11.34,3.5-17.36,3.5s-11.87-1.18-17.36-3.5c-5.31-2.25-10.08-5.46-14.18-9.56-4.1-4.1-7.32-8.87-9.56-14.18-2.33-5.5-3.5-11.34-3.5-17.36s1.18-11.87,3.5-17.36c2.25-5.31,5.46-10.08,9.56-14.18,4.1-4.1,8.87-7.32,14.18-9.56,5.5-2.33,11.34-3.5,17.36-3.5m0-4.39C22.94,1,1,22.94,1,50s21.94,49,49,49,49-21.94,49-49S77.06,1,50,1h0Z"/>
  <path class="uuid-3b17b192-4856-4713-ac7c-e7827e72f5ee" d="M71.73,33.05c.66,0,1.26,.31,1.64,.85s.47,1.21,.25,1.83l-6.91,19.36c-.42,1.18-1.54,1.96-2.79,1.96h-29.5v-24h37.32m0-2H32.41v28h31.5c2.1,0,3.97-1.32,4.67-3.29l6.91-19.36c.93-2.61-1-5.35-3.77-5.35h0Z"/>
  <path class="uuid-a0a6b5ab-e134-48be-b078-9d6ad9c9b459" d="M29.3,26.8h1.38c1.5,0,2.71,1.21,2.71,2.71v31.51c0,1.5,1.21,2.71,2.71,2.71h22.4"/>
  <path class="uuid-3b17b192-4856-4713-ac7c-e7827e72f5ee" d="M36.91,68.31c1.38,0,2.5,1.12,2.5,2.5s-1.12,2.5-2.5,2.5-2.5-1.12-2.5-2.5,1.12-2.5,2.5-2.5m0-2c-2.49,0-4.5,2.01-4.5,4.5s2.01,4.5,4.5,4.5,4.5-2.01,4.5-4.5-2.01-4.5-4.5-4.5h0Z"/>
  <path class="uuid-3b17b192-4856-4713-ac7c-e7827e72f5ee" d="M57.03,68.31c1.38,0,2.5,1.12,2.5,2.5s-1.12,2.5-2.5,2.5-2.5-1.12-2.5-2.5,1.12-2.5,2.5-2.5m0-2c-2.49,0-4.5,2.01-4.5,4.5s2.01,4.5,4.5,4.5,4.5-2.01,4.5-4.5-2.01-4.5-4.5-4.5h0Z"/>
  <g>
    <g>
      <line class="uuid-c558eb4f-3414-4e9f-8e69-f12a000d8c29" x1="38" x2="38.05" y1="37.09" y2="37.09"/>
      <line class="uuid-5d02ad95-6dcf-40a8-9901-c67c815f8bb9" x1="42.23" x2="65.86" y1="37.09" y2="37.09"/>
      <line class="uuid-c558eb4f-3414-4e9f-8e69-f12a000d8c29" x1="67.95" x2="68" y1="37.09" y2="37.09"/>
    </g>
    <g>
      <line class="uuid-c558eb4f-3414-4e9f-8e69-f12a000d8c29" x1="38" x2="38.05" y1="42.4" y2="42.4"/>
      <line class="uuid-f4dca02c-b76d-469a-8a4b-c3d88efe2e78" x1="41.95" x2="64" y1="42.4" y2="42.4"/>
      <line class="uuid-c558eb4f-3414-4e9f-8e69-f12a000d8c29" x1="65.95" x2="66" y1="42.4" y2="42.4"/>
    </g>
    <g>
      <line class="uuid-c558eb4f-3414-4e9f-8e69-f12a000d8c29" x1="38" x2="38.05" y1="47.7" y2="47.7"/>
      <line class="uuid-b1d67155-4e50-4c80-8642-8008cca454e4" x1="42.28" x2="61.84" y1="47.7" y2="47.7"/>
      <line class="uuid-c558eb4f-3414-4e9f-8e69-f12a000d8c29" x1="63.95" x2="64" y1="47.7" y2="47.7"/>
    </g>
    <g>
      <line class="uuid-c558eb4f-3414-4e9f-8e69-f12a000d8c29" x1="38" x2="38.05" y1="53.01" y2="53.01"/>
      <line class="uuid-d01507e9-09b6-49fe-a556-fe3015977130" x1="41.95" x2="60" y1="53.01" y2="53.01"/>
      <line class="uuid-c558eb4f-3414-4e9f-8e69-f12a000d8c29" x1="61.95" x2="62" y1="53.01" y2="53.01"/>
    </g>
  </g>
</svg>
